<svg xmlns="http://www.w3.org/2000/svg" width="1200" height="330" viewBox="0 0 1200 330"><defs><linearGradient id="b" x2="1" y2="1"><stop stop-color="#0d1117"/><stop offset=".55" stop-color="#10233f"/><stop offset="1" stop-color="#161b22"/></linearGradient><radialGradient id="h"><stop stop-color="#58a6ff" stop-opacity=".2"/><stop offset="1" stop-color="#58a6ff" stop-opacity="0"/></radialGradient></defs><rect width="1200" height="330" rx="24" fill="url(#b)"/><rect x="1" y="1" width="1198" height="328" rx="23" fill="none" stroke="#30363d"/><circle cx="990" cy="155" r="180" fill="url(#h)"/><text x="70" y="82" fill="#58a6ff" font-family="Segoe UI,Arial" font-size="14" font-weight="700" letter-spacing="3">DOMAIN 03 · KNOWLEDGE &amp; LEARNING</text><text x="70" y="145" fill="#f0f6fc" font-family="Segoe UI,Arial" font-size="46" font-weight="800">AI &amp; AI SECURITY</text><text x="70" y="197" fill="#c9d1d9" font-family="Segoe UI,Arial" font-size="20">LLMs · RAG · Agents · Cloud AI · Adversarial AI</text><line x1="70" y1="240" x2="670" y2="240" stroke="#30363d"/><text x="70" y="278" fill="#8b949e" font-family="Segoe UI,Arial" font-size="15">LEARN THE SYSTEM · UNDERSTAND THE RISKS · BUILD RESPONSIBLY</text><g transform="translate(860 58)" fill="none" stroke="#58a6ff" stroke-width="3"><rect x="20" y="75" width="210" height="115" rx="18" stroke="#30363d"/><path d="M50 36l74 42 74-42M124 78v130M50 36v96M198 36v96"/><g fill="#58a6ff" stroke="none"><circle cx="50" cy="36" r="8"/><circle cx="124" cy="78" r="11"/><circle cx="198" cy="36" r="8"/><circle cx="50" cy="132" r="8"/><circle cx="124" cy="208" r="8"/><circle cx="198" cy="132" r="8"/></g><path d="M20 145h210" stroke="#a371f7" stroke-width="5"/></g></svg>